<svg width="324" height="287" viewBox="0 0 324 287" fill="none" xmlns="http://www.w3.org/2000/svg">
<path d="M151.5 275C208.938 275 255.5 228.438 255.5 171C255.5 113.562 208.938 67 151.5 67C94.0624 67 47.5 113.562 47.5 171C47.5 228.438 94.0624 275 151.5 275Z" fill="#F22539" stroke="black" stroke-width="2"/>
<g clip-path="url(#clip0_35830_82)">
<mask id="mask0_35830_82" style="mask-type:alpha" maskUnits="userSpaceOnUse" x="0" y="0" width="324" height="287">
<path d="M323.872 0H0V287H323.872V0Z" fill="#C4C4C4"/>
</mask>
<g mask="url(#mask0_35830_82)">
<mask id="mask1_35830_82" style="mask-type:alpha" maskUnits="userSpaceOnUse" x="7" y="13" width="328" height="262">
<path fill-rule="evenodd" clip-rule="evenodd" d="M243.782 216.669L288.316 268.185H334.273V13.0298H7.53613V238.543H74.0205C92.837 260.288 120.637 274.045 151.65 274.045C192.087 274.045 227.061 250.657 243.782 216.669Z" fill="#C4C4C4"/>
</mask>
<g mask="url(#mask1_35830_82)">
<path d="M216.95 138.219C216.95 138.219 245.791 142.857 267.458 149.834C289.125 156.805 308.027 168.647 308.027 168.647C308.027 168.647 306.29 207.791 293.033 232.714C277.48 222.272 239.068 201.333 220.599 194.818C225.352 204.451 232.78 223.45 236.742 240.903C227.269 240.75 214.582 243.132 214.582 243.132L196.934 183.139L216.95 138.219Z" fill="#F8CC46"/>
<path d="M262.424 185.985C277.263 202.932 288.501 221.631 293.828 231.161C293.566 231.687 293.303 232.206 293.027 232.72C277.474 222.279 239.062 201.339 220.594 194.824C225.346 204.457 232.774 223.456 236.736 240.91C227.263 240.756 214.576 243.138 214.576 243.138L196.928 183.145L214.681 143.307C220.651 147.622 244.216 165.188 262.424 185.985Z" fill="#ECA539"/>
<path d="M216.95 138.219C216.95 138.219 245.791 142.857 267.458 149.834C289.125 156.805 308.027 168.647 308.027 168.647C308.027 168.647 306.29 207.791 293.033 232.714C277.48 222.272 239.068 201.333 220.599 194.818C225.352 204.451 232.78 223.45 236.742 240.903C227.269 240.75 214.582 243.132 214.582 243.132L196.934 183.139L216.95 138.219Z" stroke="#333333" stroke-width="2" stroke-miterlimit="10" stroke-linecap="round" stroke-linejoin="round"/>
<path d="M209.333 194.137C209.333 194.137 208.882 208.084 210.829 219.42C212.777 230.757 215.78 242.063 223.408 254.148C231.036 266.227 235.49 271.89 235.726 279.449C239.22 276.57 243.478 274.271 245.04 275.694C246.602 277.116 245.919 278.923 245.919 278.923C245.919 278.923 247.682 277.64 248.572 278.656C249.463 279.673 249.831 281.765 249.115 284.048C250.356 283.848 250.915 285.523 249.649 289.366C248.384 293.208 243.96 304.08 232.581 315.568C221.201 327.057 210.59 335.158 204.088 331.629C201.828 330.352 201.996 327.258 201.996 327.258C201.996 327.258 200.72 327.86 196.464 327.106C192.207 326.353 171.89 320.257 158.601 319.781C145.312 319.303 127.192 319.388 108.051 325.737C108.204 328.009 107.171 333.408 98.4371 329.705C89.7037 326.002 78.4049 318.608 68.5187 305.701C58.6326 292.793 56.5189 284.317 57.9273 283.461C58.6267 282.955 59.8238 283.511 59.8238 283.511C59.8238 283.511 57.5665 277.931 59.0921 276.988C60.6177 276.044 62.6901 278.281 62.6901 278.281C62.6901 278.281 62.3828 276.416 63.5174 275.911C64.6519 275.404 66.4207 275.814 69.5588 277.988C69.4679 274.326 69.5466 269.654 74.4964 263.198C79.4461 256.741 83.3002 254.875 87.4216 254.037C89.1254 247.97 90.1149 244.705 90.6388 241.076C90.6388 241.076 81.4002 236.236 69.8975 221.362C58.3949 206.487 51.2524 193.461 48.4384 185.921C45.6308 178.38 43.9171 173.631 43.0981 172.822C42.2784 172.008 41.241 170.532 41.3841 169.886C41.5271 169.239 43.4127 169.682 43.5558 169.035C43.6989 168.389 42.2892 165.845 42.7337 165.061C43.1781 164.277 45.477 164.627 45.6566 164.343C45.8362 164.06 45.0164 161.615 45.4772 160.994C45.9375 160.366 48.3974 160.751 48.8683 160.23C49.3393 159.709 48.0249 157.047 48.7422 156.343C49.4596 155.639 54.8639 157.149 55.3674 156.89C55.8648 156.631 56.1346 153.546 56.9598 153.412C57.7849 153.279 74.3534 160.718 83.3391 165.426C92.3248 170.133 209.333 194.137 209.333 194.137Z" fill="#F8CC46" stroke="#333333" stroke-width="1.2" stroke-miterlimit="10" stroke-linecap="round" stroke-linejoin="round"/>
<path d="M91.8315 232.746C91.8315 232.746 79.9263 230.67 66.4492 216.791C72.587 224.716 80.3962 235.216 90.0093 240.708C90.8463 237.369 91.8315 232.746 91.8315 232.746Z" fill="#ECA539"/>
<path d="M209.333 194.137C209.333 194.137 208.882 208.084 210.829 219.42C212.777 230.757 215.78 242.063 223.408 254.148C231.036 266.227 235.49 271.89 235.726 279.449C239.22 276.57 243.478 274.271 245.04 275.694C246.602 277.116 245.919 278.923 245.919 278.923C245.919 278.923 247.682 277.64 248.572 278.656C249.463 279.673 249.831 281.765 249.115 284.048C250.356 283.848 250.915 285.523 249.649 289.366C248.384 293.208 243.96 304.08 232.581 315.568C221.201 327.057 210.59 335.158 204.088 331.628C201.828 330.352 201.996 327.258 201.996 327.258C201.996 327.258 200.72 327.86 196.464 327.106C192.207 326.353 171.89 320.257 158.601 319.781C145.312 319.303 127.192 319.388 108.051 325.737C108.204 328.009 107.171 333.408 98.4371 329.705C89.7037 326.002 78.4049 318.608 68.5187 305.701C58.6326 292.793 56.5189 284.317 57.9273 283.461C58.6267 282.955 59.8238 283.511 59.8238 283.511C59.8238 283.511 57.5665 277.931 59.0921 276.988C60.6177 276.044 62.6901 278.281 62.6901 278.281C62.6901 278.281 62.3828 276.416 63.5174 275.911C64.6519 275.404 66.4207 275.814 69.5588 277.988C69.4679 274.326 69.5466 269.654 74.4964 263.198C79.4461 256.741 83.3002 254.875 87.4216 254.037C89.1254 247.97 90.1149 244.705 90.6388 241.076C90.6388 241.076 81.4002 236.236 69.8975 221.362C58.3949 206.487 51.2523 193.461 48.4384 185.921C45.6308 178.38 43.9171 173.631 43.0981 172.822C42.2785 172.008 41.241 170.532 41.3841 169.886C41.5271 169.239 43.4127 169.682 43.5558 169.035C43.6989 168.389 42.2892 165.845 42.7337 165.061C43.1781 164.277 45.477 164.627 45.6566 164.343C45.8362 164.06 45.0164 161.615 45.4772 160.994C45.9375 160.366 48.3974 160.751 48.8683 160.23C49.3393 159.709 48.0249 157.047 48.7422 156.343C49.4596 155.639 54.8639 157.149 55.3674 156.89C55.8648 156.631 56.1346 153.546 56.9598 153.412C57.7849 153.279 74.3534 160.718 83.3391 165.426C92.3248 170.133 209.333 194.137 209.333 194.137Z" stroke="#333333" stroke-width="2" stroke-miterlimit="10" stroke-linecap="round" stroke-linejoin="round"/>
<path d="M211.759 193.179C221.848 182.211 220.267 175.893 218.307 165.822C216.349 155.75 218.449 146.851 218.676 138.14C218.903 129.428 218.13 121.241 215.925 115.984C262.052 131.565 295.771 115.744 307.689 108.859C248.436 71.4251 197.096 95.9188 197.096 95.9188C197.096 95.9188 175.498 77.0804 137.187 83.3032C153.486 69.8158 172.865 53.5414 182.409 16.778C161.147 20.6037 112.514 44.8693 101.277 100.343C98.7188 104.183 94.7289 106.266 92.9504 119.929C91.172 133.593 88.232 146.678 84.6017 154.468C80.9714 162.258 78.0124 174.087 97.8608 195.895C111.733 210.506 117.352 214.156 117.352 214.156" fill="#F8CC46"/>
<path d="M156.13 146.325C156.123 147.191 155.387 148.333 153.523 148.242C151.661 148.152 150.949 146.53 151.384 145.772C151.818 145.015 156.145 144.902 156.13 146.325Z" fill="#333333"/>
<path d="M187.875 137.528C181.916 140.276 181.218 150.444 185.123 154.791C189.027 159.137 196.808 159.694 200.831 155.814C204.855 151.934 205.394 143.191 200.397 138.954C195.399 134.718 190.286 136.414 187.875 137.528Z" fill="#333333"/>
<path d="M188.298 138.155C187.159 138.737 184.953 142.125 186.697 144.559C188.443 146.993 191.704 146.937 193.362 145.746C195.02 144.556 195.625 141.608 194.116 139.51C192.606 137.412 189.834 137.368 188.298 138.155Z" fill="white"/>
<path d="M120.735 129.247C117.816 126.855 110.591 126.053 105.958 131.207C101.325 136.362 102.453 143.882 107.094 147.206C111.735 150.53 120.502 147.804 122.529 143.442C124.562 139.073 124.343 132.201 120.735 129.247Z" fill="#333333"/>
<path d="M120.269 130.621C118.759 129.534 115.792 129.611 114.532 131.198C113.272 132.783 113.356 136.371 115.185 137.691C117.014 139.011 120.267 138.444 121.403 136.825C122.539 135.207 122.436 132.178 120.269 130.621Z" fill="white"/>
<path d="M182.408 16.7775C179.24 28.9821 174.982 38.9206 170.12 47.2577C168.032 45.174 162.843 44.6785 148.338 46.8515C135.548 48.7635 122.426 58.3548 116.551 63.1289C136.016 33.6076 166.689 19.6033 182.408 16.7775Z" fill="#333333"/>
<path d="M307.689 108.864C297.892 114.525 273.362 126.218 239.322 121.547C245.085 120.234 256.171 117.047 264.773 110.602C274.922 102.99 277.538 97.4068 276.356 94.0565C286.366 97.2835 296.896 102.044 307.689 108.864Z" fill="#333333"/>
<path d="M109.568 93.8169C109.568 93.8169 109.408 93.8583 109.136 93.9741C108.856 94.0717 108.477 94.2552 108.027 94.4774C107.584 94.7179 107.062 94.9851 106.543 95.3407C106.016 95.678 105.476 96.0674 104.942 96.4811C104.679 96.6845 104.41 96.8885 104.152 97.0851C103.896 97.2941 103.653 97.5081 103.422 97.7147C102.952 98.1284 102.512 98.5138 102.164 98.8775C101.461 99.5928 101.005 100.081 101.005 100.081C100.863 100.234 100.874 100.473 101.021 100.616C101.16 100.748 101.381 100.751 101.52 100.629L101.537 100.615C101.537 100.615 102.037 100.186 102.758 99.5254C102.943 99.3614 103.126 99.1662 103.341 98.9865C103.556 98.8069 103.783 98.6135 104.015 98.4133C104.248 98.2193 104.491 98.0052 104.728 97.7918C104.978 97.5897 105.228 97.3812 105.486 97.1784C105.986 96.7554 106.515 96.3735 107 95.9961C107.479 95.6131 107.95 95.2876 108.329 94.9716C108.728 94.6849 109.056 94.4308 109.284 94.2562C109.519 94.0809 109.647 93.9795 109.647 93.9795C109.689 93.9501 109.695 93.8863 109.665 93.845C109.65 93.8213 109.611 93.8062 109.568 93.8169Z" fill="#333333" stroke="#333333"/>
<path d="M170.339 169.224C170.339 169.224 167.998 178.863 162.499 189.21C157.001 199.558 151.805 205.135 147.841 204.902C143.877 204.669 137.541 194.956 135.716 180.763C133.897 166.571 134.119 164.886 134.119 164.886C134.119 164.886 139.675 165.275 144.256 162.994C148.838 160.714 152.224 157.568 158.584 162.009C164.933 166.45 166.71 169.197 170.339 169.224Z" fill="#6C4C59" stroke="#333333" stroke-width="1.2" stroke-miterlimit="10" stroke-linecap="round" stroke-linejoin="round"/>
<path d="M135.655 180.289C137.905 177.194 142.746 172.422 150.997 172.831C160.324 173.289 163.936 180.547 165.109 183.866C164.329 185.593 163.463 187.387 162.499 189.209C156.995 199.558 151.805 205.134 147.841 204.901C143.877 204.668 137.541 194.955 135.716 180.762C135.693 180.601 135.678 180.45 135.655 180.289Z" fill="#F26981" stroke="#333333" stroke-width="1.2" stroke-miterlimit="10" stroke-linecap="round" stroke-linejoin="round"/>
<path d="M175.435 167.555C175.435 167.555 175.358 167.601 175.227 167.671C175.101 167.747 174.908 167.829 174.679 167.935C174.45 168.046 174.176 168.143 173.885 168.255C173.585 168.341 173.283 168.48 172.954 168.532C172.794 168.567 172.634 168.602 172.474 168.643C172.321 168.69 172.157 168.694 172.009 168.715C171.859 168.737 171.709 168.745 171.572 168.772C171.437 168.804 171.305 168.805 171.179 168.805C170.693 168.81 170.364 168.849 170.364 168.849L170.301 168.856C170.095 168.877 169.95 169.061 169.971 169.268C169.989 169.45 170.135 169.586 170.307 169.6C170.307 169.6 170.669 169.634 171.219 169.635C171.492 169.658 171.806 169.589 172.147 169.529C172.314 169.493 172.489 169.482 172.66 169.421C172.831 169.372 173.002 169.317 173.173 169.255C173.521 169.157 173.83 168.961 174.138 168.83C174.288 168.751 174.423 168.655 174.554 168.573C174.684 168.49 174.809 168.414 174.915 168.334C175.132 168.174 175.3 168.031 175.415 167.918C175.53 167.811 175.587 167.749 175.587 167.749L175.592 167.742C175.638 167.687 175.63 167.612 175.575 167.566C175.54 167.532 175.477 167.532 175.435 167.555Z" fill="#333333"/>
<path d="M128.826 162.235C128.826 162.235 128.866 162.312 128.976 162.46C129.078 162.607 129.23 162.795 129.422 163.015C129.515 163.126 129.639 163.227 129.758 163.348C129.883 163.455 130.004 163.595 130.154 163.7C130.452 163.91 130.754 164.164 131.106 164.337C131.442 164.544 131.8 164.71 132.146 164.827C132.316 164.891 132.48 164.957 132.643 165.01C132.8 165.071 132.96 165.086 133.102 165.123C133.681 165.234 134.064 165.278 134.064 165.278C134.267 165.302 134.455 165.151 134.477 164.946C134.497 164.767 134.387 164.607 134.229 164.548L134.178 164.528C134.178 164.528 133.838 164.41 133.32 164.273C133.189 164.235 133.048 164.218 132.91 164.149C132.771 164.087 132.621 164.039 132.464 163.98C132.306 163.92 132.144 163.873 131.985 163.8C131.833 163.721 131.673 163.642 131.508 163.57C131.174 163.44 130.882 163.235 130.594 163.068C130.441 162.989 130.317 162.887 130.189 162.806C130.067 162.717 129.933 162.641 129.837 162.557C129.624 162.388 129.44 162.256 129.329 162.153C129.212 162.057 129.142 161.989 129.142 161.989C129.064 161.908 128.939 161.908 128.858 161.986C128.795 162.048 128.785 162.138 128.818 162.217L128.826 162.235Z" fill="#333333"/>
<path d="M207.45 164.441C211.982 163.619 216.758 167.341 218.995 169.397C220.481 177.525 220.603 183.566 211.759 193.183C210.248 194.826 208.825 196.296 207.459 197.634C193.712 196.559 192.834 184.376 194.361 176.924C195.945 169.176 201.257 165.563 207.45 164.441Z" fill="#F22539" stroke="#333333" stroke-width="1.2" stroke-miterlimit="10" stroke-linecap="round" stroke-linejoin="round"/>
<path d="M83.0234 158.464C85.8621 155.53 91.7278 152.286 98.2722 156.418C106.688 161.732 107.853 174.886 103.736 181.777C100.649 186.947 93.9909 187.452 90.8564 187.381C81.0447 173.898 81.0015 164.942 83.0234 158.464Z" fill="#F22539" stroke="#333333" stroke-width="1.2" stroke-miterlimit="10" stroke-linecap="round" stroke-linejoin="round"/>
<path d="M157.607 221.374C157.575 223.065 150.855 227.532 143.798 227.395C136.742 227.264 131.457 222.741 131.516 221.256C131.575 219.771 138.414 220.878 143.707 221.293C149.003 221.715 157.643 219.475 157.607 221.374Z" fill="#ECA539"/>
<path d="M90.9972 241.128C90.9972 241.128 91.3037 239.41 91.7636 236.836C91.9548 235.54 92.1353 234.012 92.35 232.385C92.5454 230.754 92.6982 229.014 92.8579 227.279C92.9789 225.535 93.1255 223.796 93.2197 222.162C93.314 220.529 93.3807 218.999 93.3941 217.69C93.4074 216.38 93.4109 215.287 93.3847 214.525C93.3711 213.762 93.3395 213.323 93.3395 213.323C93.3382 213.247 93.2694 213.19 93.2008 213.197C93.1321 213.204 93.0804 213.254 93.0742 213.318C93.0742 213.318 93.0296 213.752 92.9422 214.513C92.8547 215.273 92.7745 216.356 92.6468 217.658C92.5443 218.957 92.4131 220.474 92.3057 222.102C92.1984 223.731 92.0387 225.465 91.904 227.198C91.8147 228.066 91.7312 228.928 91.6463 229.777C91.5615 230.626 91.5016 231.472 91.406 232.279C91.2157 233.896 91.0389 235.399 90.8851 236.69C90.5151 239.281 90.2661 241.005 90.2661 241.005C90.2363 241.211 90.3757 241.406 90.5805 241.436C90.7727 241.467 90.9669 241.327 90.9972 241.128Z" fill="#333333" stroke="#333333"/>
<path d="M103.324 254.978C103.324 254.978 103.103 254.848 102.693 254.662C102.284 254.482 101.703 254.218 100.972 253.976C100.247 253.726 99.3828 253.472 98.4418 253.27C97.9723 253.178 97.4821 253.069 96.9839 253.005C96.4838 252.923 95.973 252.861 95.4643 252.817C94.9542 252.761 94.4373 252.762 93.931 252.744C93.4234 252.712 92.9235 252.756 92.4446 252.76C91.9589 252.759 91.5001 252.837 91.0564 252.875C90.6125 252.914 90.2036 252.987 89.8198 253.056C89.4422 253.126 89.0882 253.181 88.7875 253.262C88.4803 253.342 88.2164 253.413 88.0016 253.473C87.566 253.592 87.3207 253.661 87.3207 253.661C87.1185 253.72 87.0069 253.927 87.0582 254.124C87.1089 254.315 87.3038 254.434 87.4948 254.39L87.526 254.387C87.526 254.387 87.7669 254.337 88.1926 254.243C88.4023 254.197 88.6614 254.14 88.9572 254.072C89.2537 254.011 89.5963 253.97 89.9622 253.907C90.3279 253.846 90.7249 253.781 91.1569 253.75C91.582 253.713 92.0296 253.649 92.4952 253.64C92.9603 253.625 93.441 253.576 93.9341 253.59C94.4267 253.597 94.9243 253.591 95.42 253.63C95.92 253.649 96.4151 253.682 96.9002 253.741C97.3897 253.78 97.8641 253.858 98.3312 253.925C99.2546 254.079 100.122 254.238 100.848 254.43C102.315 254.788 103.252 255.149 103.252 255.149C103.305 255.169 103.359 255.145 103.379 255.092C103.382 255.054 103.364 254.999 103.324 254.978Z" fill="#333333" stroke="#333333"/>
<path d="M150.997 172.833C160.324 173.291 163.936 180.548 165.109 183.868C164.948 184.225 164.778 184.59 164.607 184.961C162.953 182.751 158.413 177.799 150.943 177.817C142.729 177.834 138.541 178.95 135.937 182.341C135.854 181.824 135.782 181.301 135.71 180.771C135.687 180.609 135.672 180.452 135.649 180.297C137.905 177.202 142.746 172.424 150.997 172.833Z" fill="#B94966"/>
<path d="M135.655 180.289C137.905 177.194 142.746 172.422 150.997 172.831C160.324 173.289 163.936 180.547 165.109 183.866C164.329 185.593 163.463 187.387 162.499 189.209C156.995 199.558 151.805 205.134 147.841 204.901C143.877 204.668 137.541 194.955 135.716 180.762C135.693 180.601 135.678 180.45 135.655 180.289Z" stroke="#333333" stroke-width="1.2" stroke-miterlimit="10" stroke-linecap="round" stroke-linejoin="round"/>
<path d="M239.322 121.548C239.322 121.548 218.292 114.956 212.682 110.389C214.724 113.577 215.77 115.64 215.77 115.64C215.77 115.64 230.96 120.98 239.322 121.548Z" fill="#ECA539"/>
<path d="M216.267 115.823C216.267 115.823 215.993 115.168 215.556 114.201C215.455 113.959 215.298 113.703 215.144 113.434C214.991 113.165 214.83 112.878 214.661 112.579C214.323 111.981 213.895 111.417 213.5 110.812C213.306 110.51 213.082 110.229 212.865 109.954C212.648 109.679 212.432 109.404 212.223 109.147C211.786 108.634 211.38 108.163 211.001 107.784C210.634 107.392 210.307 107.09 210.078 106.879C209.848 106.661 209.704 106.556 209.704 106.556C209.658 106.523 209.595 106.529 209.555 106.571C209.527 106.606 209.526 106.662 209.555 106.697C209.555 106.697 209.971 107.268 210.594 108.128C210.914 108.551 211.244 109.074 211.644 109.596C211.829 109.868 212.021 110.152 212.214 110.436C212.401 110.727 212.623 111.001 212.805 111.299C213.173 111.894 213.585 112.472 213.888 113.042C214.055 113.322 214.215 113.59 214.366 113.847C214.519 114.103 214.668 114.335 214.781 114.583C215.261 115.532 215.601 116.155 215.601 116.155C215.701 116.342 215.929 116.406 216.114 116.306C216.268 116.208 216.336 116 216.267 115.823Z" fill="#333333" stroke="#333333"/>
<path d="M160.42 61.1502C160.42 61.1502 141.554 77.8848 126.939 86.034C134.119 83.89 137.182 83.3102 137.182 83.3102C137.182 83.3102 156.479 67.3538 160.42 61.1502Z" fill="#ECA539"/>
<path d="M182.441 214.59C184.601 213.489 186.759 212.387 188.895 211.231C191.037 210.093 193.148 208.882 195.228 207.624C197.308 206.359 199.318 204.969 201.243 203.48C203.16 201.979 204.99 200.361 206.743 198.674C208.483 196.97 210.174 195.227 211.816 193.437C213.458 191.648 215.028 189.765 216.366 187.716C217.699 185.667 218.799 183.44 219.404 181.053C220.034 178.671 220.098 176.168 219.866 173.74C219.64 171.298 219.153 168.908 218.693 166.528C218.221 164.149 217.911 161.76 217.807 159.344C217.573 154.509 218.07 149.674 218.517 144.84C218.741 142.423 218.924 139.99 218.976 137.553C219.028 135.12 219.015 132.677 218.896 130.243C218.772 127.81 218.546 125.374 218.158 122.962C217.751 120.551 217.194 118.148 216.258 115.854L215.791 116.357L218.624 117.259L220.038 117.711L221.466 118.117L224.328 118.929L227.212 119.643C228.171 119.894 229.144 120.101 230.11 120.306C231.083 120.505 232.046 120.737 233.021 120.911L235.949 121.432C236.926 121.611 237.908 121.727 238.888 121.875L240.36 122.088L241.838 122.254C242.827 122.358 243.812 122.492 244.796 122.564L247.764 122.796L250.735 122.94C251.725 122.997 252.719 122.986 253.712 123.006L255.202 123.027L256.687 122.998C258.672 122.981 260.654 122.877 262.628 122.754L265.592 122.513L268.548 122.19L271.496 121.781L274.429 121.289L277.348 120.724L280.253 120.078L283.137 119.352C284.093 119.079 285.052 118.825 286.001 118.54C293.625 116.237 300.995 113.158 307.872 109.187C308.052 109.086 308.116 108.853 308.01 108.673C307.979 108.62 307.93 108.574 307.883 108.541C305.831 107.262 303.764 106.011 301.657 104.82C300.602 104.231 299.551 103.629 298.48 103.073C297.414 102.498 296.342 101.942 295.261 101.406C293.108 100.314 290.906 99.3038 288.701 98.3186C286.481 97.3666 284.25 96.4347 281.978 95.6016C272.923 92.2091 263.485 89.8409 253.892 88.6319C244.306 87.4098 234.57 87.3464 224.964 88.4515C220.165 89.0037 215.396 89.8562 210.7 91.0046C208.356 91.5879 206.026 92.2394 203.724 92.989C201.423 93.745 199.152 94.5546 196.922 95.5689L197.33 95.6226C196.291 94.7602 195.219 94.0025 194.118 93.2665C193.017 92.5368 191.881 91.8547 190.738 91.2051C189.594 90.5493 188.424 89.9466 187.237 89.3646C186.056 88.782 184.848 88.2463 183.636 87.73C182.418 87.2206 181.191 86.7437 179.955 86.2993C178.712 85.8618 177.466 85.4375 176.199 85.0657C175.573 84.8632 174.938 84.6933 174.297 84.524C173.662 84.3541 173.025 84.1716 172.386 84.0273L170.462 83.5764L168.524 83.1773C167.88 83.0399 167.227 82.9476 166.579 82.8295C165.931 82.7178 165.282 82.6061 164.631 82.5262L162.675 82.2617L160.713 82.0609C159.407 81.9207 158.088 81.8573 156.775 81.7683C155.459 81.7362 154.145 81.6472 152.831 81.6721L150.856 81.6747L148.883 81.7405C147.569 81.7716 146.256 81.8847 144.941 81.9728C143.625 82.0545 142.326 82.242 141.015 82.3676C139.706 82.5307 138.41 82.737 137.11 82.9183L137.41 83.5832C142.679 79.2303 147.929 74.8161 152.796 69.9792C154.017 68.7757 155.204 67.5378 156.377 66.2887C157.537 65.0283 158.682 63.7505 159.793 62.4444C162.015 59.8261 164.111 57.1065 166.066 54.2875C168.021 51.4686 169.84 48.5495 171.505 45.5511L172.734 43.2853L173.903 40.994C174.65 39.4467 175.389 37.8998 176.076 36.3269C176.432 35.5454 176.749 34.7489 177.08 33.9574C177.416 33.1652 177.734 32.3688 178.038 31.5673C178.672 29.9743 179.234 28.3506 179.809 26.7321C180.338 25.099 180.894 23.476 181.364 21.8237C181.874 20.1863 182.299 18.5196 182.757 16.8684C182.813 16.667 182.697 16.4637 182.496 16.4081C182.438 16.395 182.382 16.3881 182.332 16.3995L182.326 16.4001C177.249 17.3403 172.351 18.9704 167.588 20.8965C162.834 22.8406 158.23 25.1426 153.792 27.7311C144.917 32.9017 136.708 39.2312 129.493 46.5539C125.888 50.2149 122.523 54.1173 119.472 58.2599C116.419 62.3962 113.648 66.7507 111.242 71.2959C106.392 80.3713 102.933 90.1787 100.896 100.267L100.952 100.134C100.212 101.232 99.3112 102.246 98.468 103.329C97.618 104.406 96.8385 105.559 96.1922 106.781C94.8738 109.219 94.0762 111.884 93.4621 114.556C92.8549 117.234 92.5237 119.958 92.1437 122.638C91.7581 125.324 91.3152 128.004 90.8335 130.675C89.8638 136.017 88.6825 141.324 87.1103 146.506C86.3176 149.094 85.4144 151.65 84.3052 154.099C83.1478 156.572 82.196 159.208 81.7973 161.953C81.3857 164.692 81.5233 167.503 82.0661 170.204C82.6157 172.91 83.5585 175.513 84.7228 178C85.881 180.486 87.2849 182.848 88.7999 185.122C90.3212 187.395 91.966 189.58 93.7032 191.68C94.5717 192.73 95.4528 193.78 96.3619 194.793C96.823 195.304 97.2523 195.81 97.739 196.324L99.1597 197.786L101.996 200.717C102.944 201.689 103.923 202.64 104.896 203.598C105.862 204.555 106.84 205.5 107.847 206.422C108.848 207.345 109.82 208.296 110.861 209.177C112.896 210.982 114.995 212.73 117.261 214.264C117.322 214.303 117.403 214.288 117.441 214.228C117.479 214.167 117.465 214.093 117.41 214.047L117.403 214.042C116.865 213.648 116.331 213.221 115.814 212.787C115.291 212.352 114.774 211.918 114.274 211.456C113.245 210.574 112.252 209.656 111.256 208.727C110.257 207.816 109.285 206.865 108.302 205.927C107.313 204.997 106.353 204.045 105.399 203.079C104.444 202.12 103.467 201.175 102.518 200.203L99.6817 197.272L98.2668 195.803C97.8149 195.323 97.3651 194.8 96.9178 194.302C96.0155 193.294 95.1419 192.256 94.2858 191.205C92.5624 189.116 90.9383 186.948 89.4383 184.697C87.9445 182.446 86.5623 180.114 85.4274 177.67C84.2868 175.231 83.3684 172.682 82.8388 170.051C82.3161 167.424 82.1822 164.713 82.5847 162.069C82.974 159.421 83.8854 156.883 85.0389 154.436C86.175 151.94 87.0875 149.352 87.8971 146.743C89.4898 141.514 90.688 136.186 91.6682 130.824C92.1611 128.14 92.591 125.456 92.9747 122.75C93.3466 120.053 93.6685 117.36 94.255 114.729C94.8486 112.103 95.6206 109.498 96.8848 107.147C97.5037 105.967 98.2495 104.855 99.0764 103.798C99.897 102.737 100.802 101.711 101.581 100.552C101.608 100.511 101.623 100.472 101.638 100.426L101.637 100.419C103.663 90.4024 107.097 80.6669 111.909 71.6522C114.299 67.1403 117.055 62.8189 120.085 58.7101C123.113 54.5951 126.457 50.7265 130.038 47.0867C137.207 39.8129 145.365 33.5265 154.18 28.3872C158.587 25.8206 163.163 23.5343 167.886 21.5995C172.605 19.6841 177.475 18.0696 182.469 17.1439L182.038 16.6754C181.585 18.3197 181.159 19.9739 180.655 21.6043C180.183 23.2442 179.633 24.8603 179.109 26.4864C178.539 28.0919 177.983 29.7087 177.347 31.2892C177.05 32.09 176.732 32.8802 176.394 33.6661C176.064 34.4514 175.753 35.2472 175.396 36.0225C174.715 37.5885 173.981 39.1285 173.239 40.6626L172.075 42.9409L170.857 45.1866C169.202 48.165 167.4 51.0634 165.456 53.8623C163.511 56.6614 161.432 59.3666 159.227 61.9642C158.122 63.2634 156.989 64.5337 155.835 65.7872C154.668 67.0294 153.486 68.2604 152.276 69.4563C147.438 74.2651 142.212 78.6643 136.937 83.0116C136.773 83.1418 136.754 83.3839 136.889 83.5408C136.975 83.646 137.105 83.6897 137.231 83.6771L137.237 83.6764C138.53 83.4959 139.821 83.2902 141.116 83.1284C142.415 83.004 143.708 82.8171 145.012 82.7365C146.313 82.6435 147.614 82.5316 148.916 82.5018L150.869 82.4317L152.825 82.431C154.127 82.4074 155.435 82.497 156.737 82.5241C158.038 82.6142 159.343 82.6726 160.637 82.8141L162.588 83.0161L164.525 83.2826C165.17 83.363 165.817 83.4686 166.459 83.5872C167.102 83.7058 167.748 83.7925 168.385 83.9306L170.305 84.3253L172.209 84.7719C172.848 84.9161 173.472 85.0936 174.1 85.2642C174.729 85.4347 175.358 85.6053 175.983 85.8015C177.236 86.1683 178.47 86.5876 179.699 87.0201C180.929 87.4588 182.143 87.937 183.347 88.4352C184.546 88.9464 185.735 89.4777 186.909 90.0547C188.077 90.6324 189.24 91.2294 190.371 91.874C191.501 92.5186 192.622 93.1895 193.703 93.9085C194.784 94.6276 195.857 95.3853 196.834 96.2033C196.952 96.3052 197.11 96.3208 197.243 96.257C199.402 95.2815 201.677 94.4587 203.955 93.7178C206.238 92.9762 208.55 92.3267 210.882 91.7509C215.546 90.6056 220.279 89.7569 225.054 89.2135C234.597 88.1146 244.269 88.1781 253.799 89.3933C263.329 90.6023 272.714 92.9505 281.716 96.323C283.975 97.1511 286.193 98.0781 288.4 99.0251C290.599 100.005 292.78 101.005 294.926 102.09C296.001 102.62 297.072 103.177 298.125 103.747C299.191 104.304 300.234 104.899 301.289 105.482C303.381 106.662 305.442 107.908 307.481 109.182L307.492 108.536C300.667 112.47 293.346 115.532 285.804 117.782C284.861 118.067 283.91 118.32 282.959 118.586L280.094 119.31L277.208 119.955L274.307 120.518L271.392 121L268.464 121.409L265.526 121.73L262.58 121.969C260.612 122.092 258.65 122.2 256.678 122.215L255.199 122.244L253.721 122.222C252.735 122.201 251.753 122.211 250.769 122.152L247.818 122.013L244.869 121.786C243.884 121.714 242.912 121.577 241.931 121.481L240.465 121.318L238.999 121.106C238.026 120.958 237.043 120.841 236.079 120.667L233.172 120.15C232.202 119.976 231.24 119.751 230.274 119.55C229.308 119.35 228.347 119.144 227.39 118.893L224.519 118.183L221.676 117.376L220.254 116.969L218.847 116.517L216.032 115.618C215.83 115.556 215.621 115.666 215.558 115.861C215.529 115.947 215.538 116.035 215.565 116.113V116.12C216.487 118.321 217.052 120.679 217.473 123.049C217.87 125.43 218.118 127.838 218.261 130.25C218.396 132.669 218.431 135.085 218.385 137.511C218.344 139.928 218.165 142.341 217.949 144.765C217.513 149.592 217.026 154.462 217.277 159.347C217.391 161.787 217.717 164.225 218.197 166.604C218.663 168.983 219.148 171.367 219.383 173.764C219.612 176.16 219.554 178.593 218.948 180.916C218.363 183.244 217.297 185.43 215.986 187.451C214.67 189.473 213.136 191.339 211.494 193.122C209.83 194.882 208.159 196.636 206.374 198.269C204.59 199.901 202.749 201.464 200.813 202.91C198.892 204.367 196.889 205.712 194.836 206.987C192.79 208.273 190.684 209.464 188.594 210.686C186.489 211.89 184.385 213.099 182.295 214.321C182.223 214.36 182.2 214.451 182.245 214.516C182.291 214.599 182.376 214.622 182.441 214.59Z" fill="#333333" stroke="#333333"/>
<path d="M120.529 88.9476C120.529 88.9476 121.554 88.5412 123.087 87.9257C123.468 87.7673 123.895 87.6295 124.332 87.4529C124.775 87.282 125.237 87.1092 125.716 86.9219C126.203 86.7528 126.704 86.5825 127.215 86.3984C127.719 86.2086 128.236 86.024 128.763 85.8698C129.289 85.7033 129.809 85.5435 130.322 85.3844C130.834 85.2128 131.351 85.0913 131.843 84.9535C132.34 84.8212 132.818 84.691 133.273 84.5694C133.727 84.4417 134.158 84.3351 134.56 84.2631C136.166 83.9247 137.238 83.6841 137.238 83.6841L137.269 83.6746C137.472 83.6289 137.597 83.4268 137.551 83.2229C137.506 83.0252 137.318 82.9052 137.124 82.9309C137.124 82.9309 136.026 83.1046 134.378 83.3967C133.962 83.4638 133.525 83.5646 133.065 83.6931C132.604 83.809 132.112 83.9342 131.609 84.0671C131.104 84.1936 130.575 84.3227 130.064 84.513C129.546 84.6853 129.015 84.8588 128.49 85.0379C127.958 85.2051 127.442 85.4023 126.926 85.5996C126.416 85.79 125.913 85.9985 125.435 86.192C124.958 86.4042 124.499 86.6083 124.065 86.8036C123.63 86.9927 123.222 87.1981 122.857 87.3928C122.485 87.5881 122.149 87.7609 121.851 87.9236C121.559 88.0921 121.303 88.2441 121.094 88.3662C120.672 88.611 120.447 88.7662 120.448 88.7725C120.401 88.8025 120.389 88.867 120.419 88.9145C120.433 88.9445 120.485 88.9582 120.529 88.9476Z" fill="#333333" stroke="#333333"/>
<path d="M192.298 274.843C192.298 274.843 210.48 270.297 206.381 257.755C202.233 265.168 199.59 268.915 192.298 274.843Z" fill="#ECA539"/>
<path d="M169.041 228.355C169.041 228.355 168.943 228.454 168.749 228.65C168.554 228.841 168.274 229.134 167.916 229.524C167.187 230.293 166.155 231.445 164.902 232.974C163.636 234.485 162.189 236.4 160.619 238.662C159.056 240.924 157.378 243.544 155.733 246.509C154.09 249.474 152.448 252.772 151.095 256.429C150.785 257.357 150.475 258.292 150.154 259.241C149.853 260.193 149.584 261.155 149.298 262.139C148.745 264.096 148.203 266.103 147.703 268.163C147.203 270.216 146.735 272.323 146.351 274.473C145.988 276.632 145.641 278.816 145.702 281.122C145.742 281.705 145.769 282.284 146.043 282.939C146.37 283.81 147.471 283.908 148.086 283.695C148.41 283.592 148.697 283.43 148.914 283.333C149.015 283.272 149.141 283.272 149.014 283.266C149.001 283.255 148.924 283.25 148.895 283.215C148.861 283.193 148.841 283.182 148.832 283.151C148.768 283.013 148.824 283.139 148.817 283.122L148.834 283.17C148.85 283.207 148.86 283.237 148.854 283.244L148.897 283.55L148.945 283.956L149.029 284.794C149.093 285.363 149.169 285.936 149.323 286.528C149.397 286.824 149.503 287.123 149.647 287.424C149.821 287.716 150 288.051 150.406 288.264L150.474 288.307C150.494 288.318 150.585 288.359 150.565 288.348L150.664 288.383C150.729 288.408 150.789 288.434 150.898 288.454C151.112 288.509 151.283 288.517 151.459 288.518C151.806 288.515 152.127 288.444 152.427 288.363C153.01 288.198 153.546 287.948 153.94 287.915C154.127 287.902 154.194 287.933 154.292 288.037C154.377 288.123 154.495 288.358 154.581 288.589C154.762 289.07 154.868 289.622 155.136 290.221C155.208 290.371 155.287 290.528 155.416 290.691C155.488 290.773 155.546 290.85 155.655 290.926L155.729 290.982C155.79 291.014 155.705 290.985 155.877 291.063L155.975 291.097C155.994 291.101 156 291.107 156.027 291.117L156.149 291.136C156.232 291.147 156.314 291.151 156.396 291.15C156.508 291.132 156.619 291.108 156.717 291.079C156.899 291.016 157.056 290.937 157.192 290.855C157.727 290.529 158.166 290.124 158.544 289.935C158.621 289.889 158.704 289.893 158.627 289.888C158.62 289.883 158.583 289.887 158.569 289.869L158.513 289.811L158.549 289.852C158.624 289.92 158.592 289.917 158.592 289.917C158.654 290.031 158.713 290.297 158.758 290.558C158.805 290.831 158.847 291.13 158.962 291.459C159.07 291.777 159.319 292.189 159.742 292.379C159.88 292.435 159.807 292.405 159.853 292.419L159.905 292.433C159.95 292.441 159.951 292.453 160.027 292.465C160.156 292.484 160.321 292.499 160.407 292.477C160.619 292.456 160.797 292.394 160.953 292.327C161.267 292.188 161.516 292.025 161.747 291.881C161.979 291.732 162.204 291.595 162.38 291.526C162.465 291.493 162.534 291.486 162.547 291.491L162.553 291.49C162.534 291.486 162.604 291.504 162.513 291.469L162.605 291.51C162.678 291.541 162.628 291.546 162.653 291.55C162.924 291.8 163.191 292.317 163.479 292.8C163.63 293.044 163.781 293.3 164.048 293.57C164.187 293.696 164.367 293.854 164.692 293.891C164.743 293.893 164.875 293.886 164.954 293.865C165.022 293.845 165.058 293.829 165.107 293.811C165.198 293.777 165.27 293.739 165.342 293.706C165.892 293.404 166.313 293.078 166.766 292.754C167.205 292.425 167.64 292.103 168.073 291.775C169.803 290.483 171.532 289.241 173.37 288.323C175.26 287.369 177.121 286.499 178.856 285.383C179.729 284.847 180.612 284.347 181.446 283.795C182.258 283.221 183.065 282.659 183.86 282.099C184.648 281.534 185.453 281.01 186.195 280.43C186.931 279.838 187.647 279.254 188.359 278.683C189.763 277.531 191.194 276.459 192.415 275.306C194.947 273.086 197.135 270.837 198.967 268.795C200.775 266.718 202.283 264.847 203.364 263.184C203.644 262.776 203.903 262.391 204.15 262.024C204.376 261.647 204.586 261.292 204.786 260.962C205.18 260.303 205.509 259.739 205.738 259.261C206.211 258.316 206.462 257.811 206.462 257.811C206.484 257.771 206.466 257.722 206.426 257.701C206.386 257.679 206.343 257.696 206.315 257.731L206.31 257.738C206.31 257.738 206.017 258.215 205.471 259.117C205.214 259.573 204.846 260.109 204.411 260.735C204.197 261.046 203.971 261.385 203.724 261.751C203.463 262.1 203.185 262.468 202.891 262.865C202.596 263.255 202.291 263.671 201.955 264.097C201.613 264.51 201.253 264.951 200.876 265.405C200.157 266.337 199.273 267.267 198.38 268.292C196.498 270.275 194.394 272.478 191.842 274.687C190.608 275.841 189.218 276.872 187.807 278.018C187.1 278.582 186.383 279.16 185.654 279.745C184.917 280.318 184.117 280.829 183.341 281.387C182.551 281.934 181.756 282.495 180.949 283.056C180.126 283.594 179.26 284.078 178.405 284.6C176.723 285.68 174.826 286.56 172.952 287.499C171.012 288.46 169.248 289.731 167.499 291.018C166.635 291.649 165.744 292.37 164.89 292.854C164.843 292.878 164.788 292.902 164.752 292.918L164.71 292.935C164.727 292.921 164.792 292.933 164.773 292.941C164.82 292.962 164.761 292.943 164.705 292.886C164.58 292.765 164.437 292.546 164.308 292.324C164.023 291.873 163.826 291.356 163.288 290.835C163.198 290.762 163.05 290.663 162.997 290.643L162.905 290.601C162.78 290.552 162.814 290.574 162.762 290.56L162.666 290.544C162.403 290.507 162.195 290.566 162.024 290.627C161.685 290.756 161.444 290.926 161.199 291.071C160.751 291.381 160.262 291.594 160.138 291.493C160.045 291.446 159.967 291.353 159.89 291.152C159.819 290.95 159.78 290.695 159.733 290.415C159.68 290.13 159.657 289.835 159.459 289.444C159.39 289.319 159.289 289.196 159.255 289.174L159.22 289.134C159.123 289.043 159.125 289.068 159.071 289.029C158.991 288.986 158.897 288.938 158.821 288.927C158.744 288.916 158.662 288.911 158.579 288.913C158.505 288.915 158.456 288.932 158.394 288.945C158.265 288.971 158.193 289.016 158.102 289.05C157.485 289.378 157.101 289.757 156.665 290.004C156.565 290.064 156.468 290.105 156.383 290.139C156.346 290.149 156.314 290.153 156.29 290.161C156.302 290.154 156.315 290.159 156.328 290.164C156.335 290.17 156.342 290.175 156.343 290.181C156.336 290.182 156.31 290.172 156.297 290.167C156.248 290.172 156.14 290.043 156.042 289.826C155.848 289.397 155.734 288.834 155.525 288.261C155.408 287.969 155.309 287.676 155.01 287.339C154.926 287.253 154.809 287.15 154.769 287.13L154.68 287.069C154.56 286.999 154.601 287.033 154.555 287.006L154.476 286.976C154.259 286.89 154.038 286.887 153.85 286.899C153.122 286.986 152.63 287.25 152.133 287.382C151.888 287.451 151.659 287.493 151.445 287.502C151.338 287.5 151.236 287.491 151.172 287.478C151.146 287.481 151.075 287.456 151.01 287.432L150.911 287.398C150.924 287.403 150.859 287.378 150.911 287.398L150.891 287.381C150.659 287.271 150.427 286.777 150.308 286.289C150.176 285.79 150.103 285.254 150.041 284.705L149.952 283.873L149.902 283.442C149.881 283.293 149.867 283.155 149.805 282.921C149.793 282.859 149.777 282.823 149.768 282.799L149.75 282.75C149.726 282.702 149.78 282.791 149.687 282.629C149.629 282.548 149.572 282.477 149.483 282.41C149.389 282.35 149.256 282.287 149.174 282.283C148.768 282.255 148.622 282.383 148.477 282.436C148.194 282.571 147.991 282.687 147.783 282.752C147.595 282.822 147.381 282.818 147.27 282.791C147.258 282.799 147.179 282.762 147.119 282.736L147.028 282.695C147.1 282.732 147.047 282.699 147.067 282.71C147.053 282.699 147.003 282.64 146.969 282.55C146.806 282.18 146.75 281.624 146.717 281.109C146.653 278.979 146.982 276.792 147.337 274.677C147.703 272.554 148.162 270.468 148.657 268.427C149.151 266.387 149.681 264.388 150.23 262.437C150.504 261.467 150.772 260.492 151.068 259.553C151.378 258.618 151.683 257.696 151.981 256.788C153.303 253.186 154.916 249.921 156.532 246.984C158.153 244.048 159.802 241.443 161.348 239.196C162.873 236.931 164.282 235.014 165.441 233.432C166.606 231.855 167.555 230.64 168.197 229.805C168.845 228.982 169.197 228.536 169.197 228.536C169.236 228.487 169.23 228.418 169.182 228.379C169.144 228.313 169.081 228.319 169.041 228.355Z" fill="#333333"/>
<path d="M150.911 287.398L151.01 287.432C151.075 287.456 151.146 287.481 151.172 287.478C151.236 287.491 151.338 287.5 151.445 287.502C151.659 287.493 151.888 287.451 152.133 287.382C152.63 287.25 153.122 286.986 153.85 286.899C154.038 286.887 154.259 286.89 154.476 286.976L154.555 287.006C154.601 287.033 154.56 286.999 154.68 287.069L154.769 287.13C154.809 287.15 154.926 287.253 155.01 287.339C155.309 287.676 155.408 287.969 155.525 288.261C155.734 288.834 155.848 289.397 156.042 289.826C156.14 290.043 156.248 290.172 156.297 290.167C156.31 290.172 156.336 290.182 156.343 290.181C156.342 290.175 156.335 290.17 156.328 290.164C156.315 290.159 156.302 290.154 156.29 290.161C156.314 290.153 156.346 290.149 156.383 290.139C156.468 290.105 156.565 290.064 156.665 290.004C157.101 289.757 157.485 289.378 158.102 289.05C158.193 289.016 158.265 288.971 158.394 288.945C158.456 288.932 158.505 288.915 158.579 288.913C158.662 288.911 158.744 288.916 158.821 288.927C158.897 288.938 158.991 288.986 159.071 289.029C159.125 289.068 159.123 289.043 159.22 289.134L159.255 289.174C159.289 289.196 159.39 289.319 159.459 289.444C159.657 289.835 159.68 290.13 159.733 290.415C159.78 290.695 159.819 290.95 159.89 291.152C159.967 291.353 160.045 291.446 160.138 291.493C160.262 291.594 160.751 291.381 161.199 291.071C161.444 290.926 161.685 290.756 162.024 290.627C162.195 290.566 162.403 290.507 162.666 290.544L162.762 290.56C162.814 290.574 162.78 290.552 162.905 290.601L162.997 290.643C163.05 290.663 163.198 290.762 163.288 290.835C163.826 291.356 164.023 291.873 164.308 292.324C164.437 292.546 164.58 292.765 164.705 292.886C164.761 292.943 164.82 292.962 164.773 292.941C164.792 292.933 164.727 292.921 164.71 292.935L164.752 292.918C164.788 292.902 164.843 292.878 164.89 292.854C165.744 292.37 166.635 291.649 167.499 291.018C169.248 289.731 171.012 288.46 172.952 287.499C174.826 286.56 176.723 285.68 178.405 284.6C179.26 284.078 180.126 283.594 180.949 283.056C181.756 282.495 182.551 281.934 183.341 281.387C184.117 280.829 184.917 280.318 185.654 279.745C186.383 279.16 187.1 278.582 187.807 278.018C189.218 276.872 190.608 275.841 191.842 274.687C194.394 272.478 196.498 270.275 198.38 268.292C199.273 267.267 200.157 266.337 200.876 265.405C201.253 264.951 201.613 264.51 201.955 264.097C202.291 263.671 202.596 263.255 202.891 262.865C203.185 262.468 203.463 262.1 203.724 261.751C203.971 261.385 204.197 261.046 204.411 260.735C204.846 260.109 205.214 259.573 205.471 259.117C206.017 258.215 206.31 257.738 206.31 257.738L206.315 257.731C206.343 257.696 206.386 257.679 206.426 257.701C206.466 257.722 206.484 257.771 206.462 257.811C206.462 257.811 206.211 258.316 205.738 259.261C205.509 259.739 205.18 260.303 204.786 260.962C204.586 261.292 204.376 261.647 204.15 262.024C203.903 262.391 203.644 262.776 203.364 263.184C202.283 264.847 200.775 266.718 198.967 268.795C197.135 270.837 194.947 273.086 192.415 275.306C191.194 276.459 189.763 277.531 188.359 278.683C187.647 279.254 186.931 279.838 186.195 280.43C185.453 281.01 184.648 281.534 183.86 282.099C183.065 282.659 182.258 283.221 181.446 283.795C180.612 284.347 179.729 284.847 178.856 285.383C177.121 286.499 175.26 287.369 173.37 288.323C171.532 289.241 169.803 290.483 168.073 291.775C167.64 292.103 167.205 292.425 166.766 292.754C166.313 293.078 165.892 293.404 165.342 293.706C165.27 293.739 165.198 293.777 165.107 293.811C165.058 293.829 165.022 293.845 164.954 293.865C164.875 293.886 164.743 293.893 164.692 293.891C164.367 293.854 164.187 293.696 164.048 293.57C163.781 293.3 163.63 293.044 163.479 292.8C163.191 292.317 162.924 291.8 162.653 291.55C162.628 291.546 162.678 291.541 162.605 291.51L162.513 291.469C162.604 291.504 162.534 291.486 162.553 291.49L162.547 291.491C162.534 291.486 162.465 291.493 162.38 291.526C162.204 291.595 161.979 291.732 161.747 291.881C161.516 292.025 161.267 292.188 160.953 292.327C160.797 292.394 160.619 292.456 160.407 292.477C160.321 292.499 160.156 292.484 160.027 292.465C159.951 292.453 159.95 292.441 159.905 292.433L159.853 292.419C159.807 292.405 159.88 292.435 159.742 292.379C159.319 292.189 159.07 291.777 158.962 291.459C158.847 291.13 158.805 290.831 158.758 290.558C158.713 290.297 158.654 290.031 158.592 289.917C158.592 289.917 158.624 289.92 158.549 289.852L158.513 289.811L158.569 289.869C158.583 289.887 158.62 289.883 158.627 289.888C158.704 289.893 158.621 289.889 158.544 289.935C158.166 290.124 157.727 290.529 157.192 290.855C157.056 290.937 156.899 291.016 156.717 291.079C156.619 291.108 156.508 291.132 156.396 291.15C156.314 291.151 156.232 291.147 156.149 291.136L156.027 291.117C156 291.107 155.994 291.101 155.975 291.097L155.877 291.063C155.705 290.985 155.79 291.014 155.729 290.982L155.655 290.926C155.546 290.85 155.488 290.773 155.416 290.691C155.287 290.528 155.208 290.371 155.136 290.221C154.868 289.622 154.762 289.07 154.581 288.589C154.495 288.358 154.377 288.123 154.292 288.037C154.194 287.933 154.127 287.902 153.94 287.915C153.546 287.948 153.01 288.198 152.427 288.363C152.127 288.444 151.806 288.515 151.459 288.518C151.283 288.517 151.112 288.509 150.898 288.454C150.789 288.434 150.729 288.408 150.664 288.383L150.565 288.348C150.585 288.359 150.494 288.318 150.474 288.307L150.406 288.264C150 288.051 149.821 287.716 149.647 287.424C149.503 287.123 149.397 286.824 149.323 286.528C149.169 285.936 149.093 285.363 149.029 284.794L148.945 283.956L148.897 283.55L148.854 283.244C148.86 283.237 148.85 283.207 148.834 283.17L148.817 283.122C148.824 283.139 148.768 283.013 148.832 283.151C148.841 283.182 148.861 283.193 148.895 283.215C148.924 283.25 149.001 283.255 149.014 283.266C149.141 283.272 149.015 283.272 148.914 283.333C148.697 283.43 148.41 283.592 148.086 283.695C147.471 283.908 146.37 283.81 146.043 282.939C145.769 282.284 145.742 281.705 145.702 281.122C145.641 278.816 145.988 276.632 146.351 274.473C146.735 272.323 147.203 270.216 147.703 268.163C148.203 266.103 148.745 264.096 149.298 262.139C149.584 261.155 149.853 260.193 150.154 259.241C150.475 258.292 150.785 257.357 151.095 256.429C152.448 252.772 154.09 249.474 155.733 246.509C157.378 243.544 159.056 240.924 160.619 238.662C162.189 236.4 163.636 234.485 164.902 232.974C166.155 231.445 167.187 230.293 167.916 229.524C168.274 229.134 168.554 228.841 168.749 228.65C168.943 228.454 169.041 228.355 169.041 228.355C169.081 228.319 169.144 228.313 169.182 228.379C169.23 228.418 169.236 228.487 169.197 228.536C169.197 228.536 168.845 228.982 168.197 229.805C167.555 230.64 166.606 231.855 165.441 233.432C164.282 235.014 162.873 236.931 161.348 239.196C159.802 241.443 158.153 244.048 156.532 246.984C154.916 249.921 153.303 253.186 151.981 256.788C151.683 257.696 151.378 258.618 151.068 259.553C150.772 260.492 150.504 261.467 150.23 262.437C149.681 264.388 149.151 266.387 148.657 268.427C148.162 270.468 147.703 272.554 147.337 274.677C146.982 276.792 146.653 278.979 146.717 281.109C146.75 281.624 146.806 282.18 146.969 282.55C147.003 282.64 147.053 282.699 147.067 282.71C147.047 282.699 147.1 282.732 147.028 282.695L147.119 282.736C147.179 282.762 147.258 282.799 147.27 282.791C147.381 282.818 147.595 282.822 147.783 282.752C147.991 282.687 148.194 282.571 148.477 282.436C148.622 282.383 148.768 282.255 149.174 282.283C149.256 282.287 149.389 282.35 149.483 282.41C149.572 282.477 149.629 282.548 149.687 282.629C149.78 282.791 149.726 282.702 149.75 282.75L149.768 282.799C149.777 282.823 149.793 282.859 149.805 282.921C149.867 283.155 149.881 283.293 149.902 283.442L149.952 283.873L150.041 284.705C150.103 285.254 150.176 285.79 150.308 286.289C150.427 286.777 150.659 287.271 150.891 287.381L150.911 287.398ZM150.911 287.398C150.859 287.378 150.924 287.403 150.911 287.398Z" stroke="#333333"/>
</g>
</g>
</g>
<defs>
<clipPath id="clip0_35830_82">
<rect width="323.872" height="287" fill="white"/>
</clipPath>
</defs>
</svg>
